<?xml version="1.0" encoding="utf-8"?>
<!-- Generator: Adobe Illustrator 21.0.0, SVG Export Plug-In . SVG Version: 6.00 Build 0)  -->
<svg version="1.1" id="Layer_1" xmlns="http://www.w3.org/2000/svg" xmlns:xlink="http://www.w3.org/1999/xlink" x="0px" y="0px"
	 viewBox="0 0 48 74" style="enable-background:new 0 0 48 74;" xml:space="preserve">
<style type="text/css">
	.st0{clip-path:url(#SVGID_2_);}
	.st1{fill:#2E3E50;}
</style>
<g>
	<defs>
		<rect id="SVGID_1_" width="48" height="74"/>
	</defs>
	<clipPath id="SVGID_2_">
		<use xlink:href="#SVGID_1_"  style="overflow:visible;"/>
	</clipPath>
	<g class="st0">
		<path class="st1" d="M34.6,43.2H5.2c-0.5,0-1-0.7-1-1.5V11.5c0-0.8,0.4-1.5,1-1.5h29.4c0.5,0,1,0.7,1,1.5v30.2
			C35.5,42.5,35.1,43.2,34.6,43.2z M6.1,40.3h27.5V13H6.1V40.3z"/>
		<path class="st1" d="M37.6,5.5H2.1c-0.5,0-1,0.7-1,1.5v44.4c0,0.8,0.4,1.5,1,1.5h12.7c-0.5,1.6-1.3,3.7-2.8,4.6
			c-0.4,0.3-0.7,1-0.6,1.6c0.1,0.7,0.5,1.2,0.9,1.2h14.8c0.5,0,0.8-0.5,0.9-1.2c0.1-0.7-0.1-1.4-0.6-1.6c-1.4-0.9-2.3-3.1-2.8-4.6
			h12.7c0.5,0,1-0.7,1-1.5V6.9C38.6,6.1,38.2,5.5,37.6,5.5z M24.5,57.3h-9.3c0.9-1.6,1.4-3.4,1.7-4.5h5.9
			C23.1,53.9,23.6,55.7,24.5,57.3z M36.7,49.8H3.1V8.4h33.6V49.8z"/>
		<path class="st1" d="M38.8,68.5C38.8,68.5,38.8,68.5,38.8,68.5H1c-0.3,0-0.6-0.3-0.8-0.7C0,67.4,0,66.9,0.1,66.5l1.2-4.1
			c0.2-0.5,0.5-0.9,0.9-0.9h35.5c0.4,0,0.7,0.3,0.9,0.9l1.1,4c0.1,0.2,0.1,0.4,0.1,0.7C39.8,67.9,39.3,68.5,38.8,68.5z M2.4,65.6
			h34.9L37,64.4H2.7L2.4,65.6z"/>
		<path class="st1" d="M47,68.5h-6c-0.5,0-1-0.7-1-1.5V65c0-2.5,1.7-4.5,4-4.5c2.2,0,4,2,4,4.5v2.1C48,67.9,47.6,68.5,47,68.5z
			 M42,65.6h4.1V65c0-0.6-0.8-1.6-2.1-1.6c-1.2,0-2.1,0.9-2.1,1.6V65.6z"/>
	</g>
</g>
</svg>
