<?xml version="1.0" encoding="utf-8"?>
<!-- Generator: Adobe Illustrator 21.0.0, SVG Export Plug-In . SVG Version: 6.00 Build 0)  -->
<svg version="1.1" id="Layer_1" xmlns="http://www.w3.org/2000/svg" xmlns:xlink="http://www.w3.org/1999/xlink" x="0px" y="0px"
	 viewBox="0 0 59 68" style="enable-background:new 0 0 59 68;" xml:space="preserve">
<style type="text/css">
	.st0{fill:#2E3E50;}
</style>
<path class="st0" d="M58,28.1c-0.6,0-1,0.7-1,1.5c0,2.3,0,6.5,0,8.8c0,0.8,0.5,1.5,1,1.5c0.6,0,1-0.7,1-1.5c0-2.3,0-6.5,0-8.8
	C59,28.8,58.5,28.1,58,28.1z"/>
<path class="st0" d="M1,28.1c-0.6,0-1,0.7-1,1.5c0,2.3,0,6.5,0,8.8c0,0.8,0.5,1.5,1,1.5c0.6,0,1-0.7,1-1.5c0-2.3,0-6.5,0-8.8
	C2,28.8,1.6,28.1,1,28.1z"/>
<path class="st0" d="M13.5,14.8c-1.9,0-3.4,2-3.4,4.4c0,7.4,0,22.2,0,29.6c0,2.4,1.5,4.4,3.4,4.4s3.4-2,3.4-4.4c0-2.9,0-6.9,0-11.2
	c2,0,19.4,0,24.6,0c0,4.3,0,8.3,0,11.2c0,2.4,1.5,4.4,3.4,4.4c1.9,0,3.4-2,3.4-4.4c0-7.4,0-22.2,0-29.6c0-2.4-1.5-4.4-3.4-4.4
	c-1.9,0-3.4,2-3.4,4.4c0,2.9,0,6.9,0,11.2c-5.2,0-22.7,0-24.6,0c0-4.3,0-8.3,0-11.2C16.9,16.8,15.4,14.8,13.5,14.8z"/>
<path class="st0" d="M52.8,20.7c-0.1,0-0.2,0-0.3,0c-1.4,0-2.6,1.3-2.6,2.9c0,5.1,0,15.6,0,20.7c0,1.6,1.1,2.9,2.6,2.9
	c0.1,0,0.2,0,0.3,0c1.4,0,2.6-1.3,2.6-2.9c0-5.1,0-15.6,0-20.7C55.4,22,54.2,20.7,52.8,20.7z"/>
<path class="st0" d="M6.1,20.7c-0.1,0-0.2,0-0.3,0c-1.4,0-2.6,1.3-2.6,2.9c0,5.1,0,15.6,0,20.7c0,1.6,1.1,2.9,2.6,2.9
	c0.1,0,0.2,0,0.3,0c1.4,0,2.6-1.3,2.6-2.9c0-5.1,0-15.6,0-20.7C8.7,22,7.6,20.7,6.1,20.7z"/>
</svg>
