<?xml version="1.0" encoding="utf-8"?>
<!-- Generator: Adobe Illustrator 21.0.0, SVG Export Plug-In . SVG Version: 6.00 Build 0)  -->
<svg version="1.1" id="Layer_1" xmlns="http://www.w3.org/2000/svg" xmlns:xlink="http://www.w3.org/1999/xlink" x="0px" y="0px"
	 viewBox="0 0 52 62" style="enable-background:new 0 0 52 62;" xml:space="preserve">
<style type="text/css">
	.st0{fill:#2E3E50;}
</style>
<path class="st0" d="M13,47.5c1.4,0,2.6-1.4,2.6-3.1v-3.1h2.6c1.4,0,2.6-1.4,2.6-3.1c0-1.7-1.2-3.1-2.6-3.1h-2.6V32
	c0-1.7-1.2-3.1-2.6-3.1s-2.6,1.4-2.6,3.1v3.1H7.8c-1.4,0-2.6,1.4-2.6,3.1c0,1.7,1.2,3.1,2.6,3.1h2.6v3.1
	C10.4,46.1,11.6,47.5,13,47.5z M7.8,39.3c-0.5,0-0.9-0.5-0.9-1c0-0.6,0.4-1,0.9-1h3.5c0.5,0,0.9-0.5,0.9-1V32c0-0.6,0.4-1,0.9-1
	s0.9,0.5,0.9,1v4.1c0,0.6,0.4,1,0.9,1h3.5c0.5,0,0.9,0.5,0.9,1s-0.4,1-0.9,1h-3.5c-0.5,0-0.9,0.5-0.9,1v4.1c0,0.6-0.4,1-0.9,1
	s-0.9-0.5-0.9-1v-4.1c0-0.6-0.4-1-0.9-1H7.8z"/>
<path class="st0" d="M39,22.7h-6.1v-9.3c0-2.8-1.9-5.2-4.3-5.2c-2.4,0-4.3,2.3-4.3,5.2c0,1.7-1.2,3.1-2.6,3.1
	c-1.4,0-2.6-1.4-2.6-3.1V1c0-0.6-0.4-1-0.9-1c-0.5,0-0.9,0.5-0.9,1v12.4c0,2.8,1.9,5.2,4.3,5.2s4.3-2.3,4.3-5.2
	c0-1.7,1.2-3.1,2.6-3.1s2.6,1.4,2.6,3.1v10.3c0,0.6,0.4,1,0.9,1H39c6.1,0,11.3,6.2,11.3,13.4v16.6c0,3.3-2.6,5.1-4.3,5.1
	c-2.5,0-4-1.9-5.9-4.4c-2.7-3.6-6.1-8-14-8c-7.9,0-11.3,4.4-14,8c-1.9,2.5-3.4,4.4-5.9,4.4c-1.8,0-4.3-2-4.3-5.2V38.2
	C1.7,31,6.9,24.8,13,24.8h15.6c0.5,0,0.9-0.5,0.9-1c0-0.6-0.4-1-0.9-1H13c-7,0-13,7.1-13,15.5v16.5C0,59,3.2,62,6.1,62
	c3.3,0,5.2-2.5,7.2-5.1c2.6-3.4,5.6-7.3,12.7-7.3c7.1,0,10.1,3.9,12.8,7.3c2,2.6,3.9,5.1,7.2,5.1c2.9,0,6.1-2.9,6.1-7.2V38.2
	C52,29.8,46,22.7,39,22.7z"/>
<path class="st0" d="M44.2,41.3c1.4,0,2.6-1.4,2.6-3.1c0-1.7-1.2-3.1-2.6-3.1c-1.4,0-2.6,1.4-2.6,3.1C41.6,39.9,42.8,41.3,44.2,41.3
	z M44.2,37.2c0.5,0,0.9,0.5,0.9,1s-0.4,1-0.9,1c-0.5,0-0.9-0.5-0.9-1S43.7,37.2,44.2,37.2z"/>
<path class="st0" d="M39,28.9c-1.4,0-2.6,1.4-2.6,3.1c0,1.7,1.2,3.1,2.6,3.1c1.4,0,2.6-1.4,2.6-3.1C41.6,30.3,40.4,28.9,39,28.9z
	 M39,33.1c-0.5,0-0.9-0.5-0.9-1c0-0.6,0.4-1,0.9-1s0.9,0.5,0.9,1C39.9,32.6,39.5,33.1,39,33.1z"/>
<path class="st0" d="M33.8,35.1c-1.4,0-2.6,1.4-2.6,3.1c0,1.7,1.2,3.1,2.6,3.1c1.4,0,2.6-1.4,2.6-3.1C36.4,36.5,35.2,35.1,33.8,35.1
	z M33.8,39.3c-0.5,0-0.9-0.5-0.9-1c0-0.6,0.4-1,0.9-1c0.5,0,0.9,0.5,0.9,1C34.7,38.8,34.3,39.3,33.8,39.3z"/>
<path class="st0" d="M39,47.5c1.4,0,2.6-1.4,2.6-3.1s-1.2-3.1-2.6-3.1c-1.4,0-2.6,1.4-2.6,3.1S37.6,47.5,39,47.5z M39,43.4
	c0.5,0,0.9,0.5,0.9,1s-0.4,1-0.9,1s-0.9-0.5-0.9-1S38.5,43.4,39,43.4z"/>
</svg>
