<?xml version="1.0" encoding="utf-8"?>
<!-- Generator: Adobe Illustrator 21.0.0, SVG Export Plug-In . SVG Version: 6.00 Build 0)  -->
<svg version="1.1" id="Layer_1" xmlns="http://www.w3.org/2000/svg" xmlns:xlink="http://www.w3.org/1999/xlink" x="0px" y="0px"
	 viewBox="0 0 53 65" style="enable-background:new 0 0 53 65;" xml:space="preserve">
<style type="text/css">
	.st0{clip-path:url(#SVGID_2_);}
	.st1{fill:#2E3E50;}
</style>
<g>
	<defs>
		<rect id="SVGID_1_" width="53" height="65"/>
	</defs>
	<clipPath id="SVGID_2_">
		<use xlink:href="#SVGID_1_"  style="overflow:visible;"/>
	</clipPath>
	<g class="st0">
		<path class="st1" d="M26.5,5.1C14.2,5.1,4.2,17.4,4.2,32.5c0,10.9,5.2,20.3,12.7,24.7l0.7-16.6c0,0-1.3-0.5-1.6-0.7
			c-2.8-1.5-4.8-5.9-4.8-11.7c0-6.3,4-11.7,7.8-11.7c0,0,0,0,0,0c0,0,0,0,0,0c3.8,0,7.8,5.5,7.8,11.7c0,5.8-2,10.2-4.8,11.7
			c0,0-1.6,0.7-1.6,0.7l0.8,18.4c1.7,0.5,3.5,0.8,5.3,0.8c2.5,0,4.9-0.5,7.1-1.4L34.3,42c-1.8-0.5-3.4-1.9-4.4-3.7
			c-1.2-2.2,0.9-21.9,0.9-21.9h1.4v18.4h1.4V16.5h1.5v18.4h1.4V16.5h1.6v18.4h1.4V16.5h1.1c0,0,2.1,19.6,0.9,21.9
			c-1,1.8-2.5,3.2-4.3,3.7c0,0-0.1,0-0.1,0l0.6,14.1c6.7-4.7,11.1-13.6,11.1-23.7C48.8,17.4,38.8,5.1,26.5,5.1z"/>
		<path class="st1" d="M14.4,25.4c0.1-0.4,0.2-0.8,0.2-0.8c0-0.1,0-0.3-0.2-0.4c-0.1-0.1-0.3,0-0.4,0.1c0,0-0.2,0.3-0.4,0.7
			c-0.2,0.4-0.4,1-0.6,1.7c-0.2,0.7-0.3,1.5-0.4,2.5c0,0.5,0,1,0,1.5c0,0.5,0.1,1,0.2,1.6c0.4,1.5,0.8,3,2,4.5
			c0.4,0.5,0.8,0.8,1.1,1.1L16,38c0.1,0,0.1,0.1,0.2,0.1c0.2,0.2,0.4,0.2,0.4,0.2c0.1,0,0.2,0,0.3-0.2c0-0.1,0-0.3-0.1-0.4
			c0,0-0.1-0.1-0.3-0.4c-0.1-0.2-0.3-0.4-0.4-0.7c-0.1-0.2-0.2-0.4-0.4-0.6c-0.6-1.1-0.9-2.7-1.4-4.3c-0.1-0.3-0.2-0.8-0.2-1.2
			c0-0.4-0.1-0.9-0.1-1.3c0-0.9,0-1.7,0.1-2.3C14.3,26.4,14.3,25.8,14.4,25.4z"/>
		<path class="st1" d="M26.5,0C11.9,0,0,14.6,0,32.5C0,50.4,11.9,65,26.5,65C41.1,65,53,50.4,53,32.5C53,14.6,41.1,0,26.5,0z
			 M26.5,62.6C13,62.6,2,49.1,2,32.5C2,15.9,13,2.4,26.5,2.4C40,2.4,51,15.9,51,32.5C51,49.1,40,62.6,26.5,62.6z"/>
	</g>
</g>
</svg>
