<?xml version="1.0" encoding="utf-8"?>
<!-- Generator: Adobe Illustrator 21.0.0, SVG Export Plug-In . SVG Version: 6.00 Build 0)  -->
<svg version="1.1" id="Layer_1" xmlns="http://www.w3.org/2000/svg" xmlns:xlink="http://www.w3.org/1999/xlink" x="0px" y="0px"
	 viewBox="0 0 57 63" style="enable-background:new 0 0 57 63;" xml:space="preserve">
<style type="text/css">
	.st0{fill:#2E3E50;}
</style>
<path class="st0" d="M44.5,60.5V22.9c0-0.7-0.2-1.2-0.6-1.7L38,14.2V2.7C38,1.2,36.9,0,35.6,0H21.9c-1.3,0-2.4,1.2-2.4,2.7v11
	l-6.4,7.5c-0.4,0.4-0.6,1.1-0.6,1.7v37.5c0,1.5,1.1,2.7,2.4,2.7h27.6C43.7,63,44.8,61.8,44.5,60.5z M24.2,5.3h9v6.8h-9V5.3z
	 M40,57.8H17.3v-34l5.5-6.4h11.8l5.5,6.4V57.8z"/>
<path class="st0" d="M30,33.6c0-0.9-0.7-1.6-1.5-1.6c-0.8,0-1.5,0.7-1.5,1.6v6h-5.4c-0.8,0-1.5,0.7-1.5,1.6c0,0.9,0.7,1.6,1.5,1.6
	h5.6V49c0,0.9,0.7,1.6,1.5,1.6h0.1c0.8,0,1.5-0.7,1.5-1.6v-6.2h5.4c0.8,0,1.5-0.7,1.5-1.6c0-0.9-0.7-1.6-1.5-1.6H30V33.6z"/>
</svg>
