<?xml version="1.0" encoding="utf-8"?>
<!-- Generator: Adobe Illustrator 21.0.0, SVG Export Plug-In . SVG Version: 6.00 Build 0)  -->
<svg version="1.1" id="Layer_1" xmlns="http://www.w3.org/2000/svg" xmlns:xlink="http://www.w3.org/1999/xlink" x="0px" y="0px"
	 viewBox="0 0 56 61" style="enable-background:new 0 0 56 61;" xml:space="preserve">
<style type="text/css">
	.st0{fill:#2E3E50;}
</style>
<path class="st0" d="M37.6,27.9c-6.1,0-11.1,5.4-11.1,12.1c0,6.7,5,12.1,11.1,12.1S48.7,46.7,48.7,40C48.7,33.3,43.7,27.9,37.6,27.9
	z M37.6,45c-2.5,0-4.6-2.2-4.6-5c0-2.7,2.1-5,4.6-5c2.5,0,4.6,2.2,4.6,5C42.2,42.7,40.1,45,37.6,45z M53.2,19.9H48v-9.4
	c2.1-0.6,3.5-2.5,3.5-4.8c0-2.7-2-5-4.6-5c-2.5,0-4.6,2.2-4.6,5c0,2.1,1.3,3.9,2.8,4.6v9.6H2.9C1.3,19.9,0,21.3,0,23v34.2
	c0,1.7,1.3,3.1,2.9,3.1h50.3c1.6,0,2.8-1.4,2.8-3.1V23C56,21.3,54.8,19.9,53.2,19.9z M15.5,52H6.2c-0.8,0-1.4-0.7-1.4-1.6
	s0.6-1.6,1.4-1.6h9.3c0.8,0,1.4,0.7,1.4,1.6S16.3,52,15.5,52z M15.5,41.7H6.2c-0.8,0-1.4-0.7-1.4-1.6s0.6-1.6,1.4-1.6h9.3
	c0.8,0,1.4,0.7,1.4,1.6S16.3,41.7,15.5,41.7z M15.5,31.3H6.2c-0.8,0-1.4-0.7-1.4-1.6c0-0.9,0.6-1.6,1.4-1.6h9.3
	c0.8,0,1.4,0.7,1.4,1.6C16.9,30.6,16.3,31.3,15.5,31.3z M37.6,55.2c-7.7,0-14-6.8-14-15.3c0-8.4,6.3-15.3,14-15.3
	c7.7,0,14,6.8,14,15.3C51.6,48.4,45.3,55.2,37.6,55.2z"/>
</svg>
