<?xml version="1.0" encoding="utf-8"?>
<!-- Generator: Adobe Illustrator 21.0.0, SVG Export Plug-In . SVG Version: 6.00 Build 0)  -->
<svg version="1.1" id="Layer_1" xmlns="http://www.w3.org/2000/svg" xmlns:xlink="http://www.w3.org/1999/xlink" x="0px" y="0px"
	 viewBox="0 0 59 63" style="enable-background:new 0 0 59 63;" xml:space="preserve">
<style type="text/css">
	.st0{fill:#2E3E50;}
</style>
<path class="st0" d="M48,13.3H22.6c-0.5,0-0.9,0.4-0.9,1c0,0.5,0.4,1,0.9,1H48c0.5,0,0.9-0.4,0.9-1C48.9,13.7,48.5,13.3,48,13.3z"/>
<path class="st0" d="M28.1,18.2h-5.5c-0.5,0-0.9,0.4-0.9,1c0,0.5,0.4,1,0.9,1h5.5c0.5,0,0.9-0.4,0.9-1
	C29.1,18.7,28.7,18.2,28.1,18.2z"/>
<path class="st0" d="M48,18.2H32.3c-0.5,0-0.9,0.4-0.9,1c0,0.5,0.4,1,0.9,1H48c0.5,0,0.9-0.4,0.9-1C48.9,18.7,48.5,18.2,48,18.2z"/>
<path class="st0" d="M48,23.1h-7c-0.5,0-0.9,0.4-0.9,1c0,0.5,0.4,1,0.9,1h7c0.5,0,0.9-0.4,0.9-1C48.9,23.6,48.5,23.1,48,23.1z"/>
<path class="st0" d="M36.8,23.1H22.6c-0.5,0-0.9,0.4-0.9,1c0,0.5,0.4,1,0.9,1h14.2c0.5,0,0.9-0.4,0.9-1
	C37.8,23.6,37.3,23.1,36.8,23.1z"/>
<path class="st0" d="M48,28.1H22.6c-0.5,0-0.9,0.4-0.9,1c0,0.5,0.4,1,0.9,1H48c0.5,0,0.9-0.4,0.9-1C48.9,28.5,48.5,28.1,48,28.1z"/>
<path class="st0" d="M48,42.8H22.6c-0.5,0-0.9,0.4-0.9,1c0,0.5,0.4,1,0.9,1H48c0.5,0,0.9-0.4,0.9-1C48.9,43.3,48.5,42.8,48,42.8z"/>
<path class="st0" d="M28.1,33h-5.5c-0.5,0-0.9,0.4-0.9,1c0,0.5,0.4,1,0.9,1h5.5c0.5,0,0.9-0.4,0.9-1C29.1,33.4,28.7,33,28.1,33z"/>
<path class="st0" d="M48,33H32.3c-0.5,0-0.9,0.4-0.9,1c0,0.5,0.4,1,0.9,1H48c0.5,0,0.9-0.4,0.9-1C48.9,33.4,48.5,33,48,33z"/>
<path class="st0" d="M48,37.9h-7c-0.5,0-0.9,0.4-0.9,1c0,0.5,0.4,1,0.9,1h7c0.5,0,0.9-0.4,0.9-1C48.9,38.3,48.5,37.9,48,37.9z"/>
<path class="st0" d="M36.8,37.9H22.6c-0.5,0-0.9,0.4-0.9,1c0,0.5,0.4,1,0.9,1h14.2c0.5,0,0.9-0.4,0.9-1
	C37.8,38.3,37.3,37.9,36.8,37.9z"/>
<path class="st0" d="M28.1,47.7h-5.5c-0.5,0-0.9,0.4-0.9,1s0.4,1,0.9,1h5.5c0.5,0,0.9-0.4,0.9-1S28.7,47.7,28.1,47.7z"/>
<path class="st0" d="M48,47.7H32.3c-0.5,0-0.9,0.4-0.9,1s0.4,1,0.9,1H48c0.5,0,0.9-0.4,0.9-1S48.5,47.7,48,47.7z"/>
<path class="st0" d="M47.9,0H14.2c-3.3,0-5.9,2.8-5.9,6.3v2.6H7.1c-0.9,0-1.6,0.8-1.6,1.7c0,0.9,0.7,1.7,1.6,1.7h1.3v38.4H7.1
	c-0.9,0-1.6,0.8-1.6,1.7s0.7,1.7,1.6,1.7h1.3v2.6c0,3.4,2.6,6.3,5.9,6.3h33.7c3.3,0,5.6-2.8,5.6-6.3V6.3C53.5,2.8,51.2,0,47.9,0z
	 M47.9,61H17.6V2h30.4c2.3,0,3.7,1.9,3.7,4.3v50.5h0C51.7,59.1,50.2,61,47.9,61z"/>
</svg>
