<?xml version="1.0" encoding="utf-8"?>
<!-- Generator: Adobe Illustrator 21.0.0, SVG Export Plug-In . SVG Version: 6.00 Build 0)  -->
<svg version="1.1" id="Layer_1" xmlns="http://www.w3.org/2000/svg" xmlns:xlink="http://www.w3.org/1999/xlink" x="0px" y="0px"
	 viewBox="0 0 43 50" style="enable-background:new 0 0 43 50;" xml:space="preserve">
<style type="text/css">
	.st0{fill:#2E3E50;}
</style>
<path class="st0" d="M29.4,0.6c-0.3,0.2-0.7,0.6-0.8,1.1c-0.1,0.5-0.1,3.7,0,4.1C28.8,6.4,29.3,7,29.7,7c0.2,0,0.2,0.1,0.2,1v1
	l-1.4,0.8c-0.8,0.5-1.7,1-1.9,1.2c-0.7,0.6-1.3,1.4-1.7,2.3c-0.5,1.3-0.6,1.6-0.6,5.9c0,4.1,0,4.4,0.5,5.4l0.2,0.5l0,6.9
	c0,7.5,0,7.2-0.4,8.5c-0.2,0.6-0.2,0.6-0.3,2.8c0,1.4,0,2.4,0.1,2.7c0.1,0.8,0.5,1.6,1,2.1c0.8,0.9,1.7,1.2,2.9,1.1
	c0.9,0,1.1-0.2,1.9-0.8l0.4-0.4l0.4,0.4c0.8,0.8,1,0.8,2.4,0.8s1.6-0.1,2.4-0.8l0.4-0.4l0.5,0.4c0.7,0.7,1,0.8,1.8,0.8
	c1.3,0.1,2.3-0.3,3-1.3c0.9-1.1,1-1.7,1-4.8l0-2.3l-0.3-0.8l-0.3-0.8v-7.1v-7.1l0.3-0.7c0.1-0.4,0.3-0.8,0.3-1.1
	c0.1-0.2,0.1-1.8,0.1-4.3c0-3.6,0-3.9-0.2-4.6c-0.3-1.5-1.2-2.9-2.3-3.7c-0.3-0.2-1.1-0.8-1.8-1.2L37,9V8c0-0.9,0-1,0.2-1
	c0.3,0,0.8-0.4,1-0.7c0.2-0.3,0.2-0.4,0.2-2.3c0-2.1,0-2.4-0.4-2.9c-0.4-0.6-0.4-0.6-4.6-0.6C30.4,0.5,29.5,0.5,29.4,0.6z M37,3.8
	v1.6h-0.7h-0.7l0-0.6c0-0.5-0.1-0.6-0.3-0.8c-0.2-0.2-0.3-0.2-0.5-0.2c-0.4,0.1-0.6,0.3-0.6,1v0.6h-0.7h-0.7V5c0-0.5-0.2-1-0.5-1.2
	c-0.5-0.2-1,0.3-1,1.2v0.4h-0.7h-0.7V3.8V2.1h3.5H37L37,3.8L37,3.8z M35.6,8.4c0,1.1,0,1.4,0.2,1.6c0.1,0.1,0.9,0.7,1.9,1.2
	c1.6,0.9,1.9,1.1,2.3,1.6c0.6,0.7,1,1.5,1.1,2.3c0.1,0.4,0.1,1.8,0.1,4.3l0,3.7l-0.3,0.7c-0.1,0.4-0.3,0.9-0.4,1.2
	c0,0.3-0.1,3.3-0.1,6.7v6.2l-6.1,0h-6.1L28,38.4c-0.2,0.3-0.2,0.7,0,1.1l0.2,0.3l6.1,0l6.1,0l0.1,0.5c0.1,0.3,0.2,0.6,0.3,0.8
	c0.1,0.3,0.2,0.6,0.2,2.7c0,2.2,0,2.4-0.2,2.7c-0.4,0.9-1,1.3-2,1.4c-0.8,0-0.9,0-1.8-0.9c-0.8-0.9-0.9-0.9-1.7,0
	c-0.8,0.9-0.9,1-2,1c-1,0-1.1-0.1-2-1.1c-0.7-0.8-0.8-0.8-1.6,0.1c-0.9,0.9-1,1-1.8,0.9c-0.8,0-1.2-0.2-1.7-0.8
	c-0.5-0.6-0.6-1.1-0.5-3.5l0-2.1l0.3-0.6c0.1-0.3,0.3-0.9,0.3-1.1c0-0.3,0.1-2.9,0.1-6.8v-6.3h6.1h6.1l0.2-0.2
	c0.3-0.3,0.3-0.8,0-1.1L38.6,25h-6.1h-6.1l-0.3-0.9l-0.3-0.9l0-3.7c0-2.2,0-3.9,0.1-4.2c0.1-0.8,0.5-1.7,1.1-2.4
	c0.5-0.5,0.7-0.7,2.3-1.6c1-0.6,1.8-1.1,2-1.2c0.2-0.2,0.2-0.3,0.2-1.6c0-0.7,0-1.4,0.1-1.4c0,0,1,0,2.1,0l2.1,0L35.6,8.4z"/>
<path class="st0" d="M29.5,30.1c-0.3,0.3-0.4,0.8,0,1.1l0.2,0.2h3.1h3.1l0.2-0.2c0.3-0.3,0.3-0.8,0-1.1l-0.3-0.2h-3h-3L29.5,30.1z"
	/>
<path class="st0" d="M29.7,33.2c-0.5,0.2-0.6,0.9-0.2,1.3l0.2,0.2h3.8h3.8l0.2-0.2c0.3-0.3,0.3-0.8,0-1.1l-0.2-0.2l-3.7,0
	C31.5,33.2,29.8,33.2,29.7,33.2z"/>
<path class="st0" d="M1.4,1.6C1,2,1.1,2.4,1.5,3l0.4,0.5L2,4.5c0.2,2.8,0.2,5.4-0.1,7C1.8,12,1.8,12.1,2,12.3
	c0.2,0.4,0.5,0.5,0.8,0.3c0.1-0.1,0.3-0.2,0.3-0.3c0.2-0.4,0.4-2,0.4-3.9l0-1.9l0.3,1.2c0.4,1.2,0.7,3.1,0.7,3.9
	c0,0.4,0,0.5,0.2,0.8c0.3,0.4,0.7,0.4,1,0C6,12.3,6.1,12.2,6,11.3C5.9,9.7,5.4,7.5,4.8,5.6C4.6,5.3,4.7,5.3,5.3,6
	c1.2,1.5,2,3.4,2.2,5.5c0.1,0.7,0.1,0.8,0.3,1c0.3,0.3,0.7,0.3,0.9,0c0.2-0.3,0.3-0.9,0.1-2C8.1,7,6.3,4.1,3.6,2.6
	C3.3,2.4,2.8,2.1,2.6,1.8C2.1,1.3,1.7,1.2,1.4,1.6z"/>
<path class="st0" d="M11,4c-0.5,0.3-0.7,0.7-0.8,1.3c0,0.3,0,2,0,3.7l0,3.2l0.2,0.2c0.3,0.3,0.6,0.3,0.9,0l0.2-0.2l0-3.5l0-3.5h4.2
	h4.2v3.4c0,3.6,0,3.6,0.4,3.8c0.3,0.2,0.5,0.1,0.8-0.2l0.2-0.3V8.8V5.4h0.7h0.7v3v3l0.2,0.2c0.3,0.3,0.7,0.3,1,0l0.2-0.2V8.3
	c0-3.4,0-3.6-0.5-4c-0.1-0.1-0.3-0.3-0.5-0.4c-0.2-0.1-2.2-0.1-6.1-0.1h-5.9L11,4z"/>
<path class="st0" d="M0.6,13.9l-0.2,0.2l0,16.2l0,16.2L0.7,47c0.5,1.1,1.3,2,2.4,2.3c0.3,0.1,2.2,0.1,10.2,0.1h9.8l0.2-0.2
	c0.3-0.3,0.3-0.8,0-1.1l-0.2-0.2l-9.9,0c-9.5,0-10-0.1-10.2-0.2c-0.4-0.2-0.8-0.7-1-1.2c-0.2-0.4-0.2-0.5-0.2-3.6l0-3.2h10.5
	c11.6,0,11,0,11.2-0.6c0.1-0.4,0-0.9-0.3-1c-0.1,0-5-0.1-10.8-0.1l-10.6,0l0-10.9l0-10.9L2,16.6c0.1,0.2,0.3,0.2,0.5,0.2
	c0.2,0,0.4-0.1,0.8-0.6l0.6-0.6l0.6,0.6c0.5,0.6,0.6,0.6,0.8,0.6c0.2,0,0.4-0.1,0.8-0.6l0.6-0.6l0.4,0.5c0.8,1,1.1,1,1.9,0.1
	l0.5-0.6l0.5,0.5c0.8,0.9,1,0.9,1.8,0.1l0.5-0.6l0.5,0.6c0.8,0.9,1,0.9,1.9-0.1l0.4-0.5l0.6,0.6c0.5,0.5,0.6,0.6,0.8,0.6
	c0.2,0,0.4-0.1,0.8-0.6l0.6-0.6l0.6,0.6c0.5,0.6,0.6,0.6,0.8,0.6c0.2,0,0.4-0.1,0.8-0.6l0.6-0.6l0.6,0.6c0.5,0.6,0.6,0.6,0.9,0.6
	c0.4,0,0.7-0.4,0.7-0.8c0-0.2-0.1-0.4-0.9-1.3c-0.8-1-0.9-1-1.2-1c-0.3,0-0.4,0.1-0.9,0.6l-0.5,0.6l-0.6-0.6
	c-0.5-0.5-0.6-0.6-0.9-0.6c-0.3,0-0.4,0.1-0.8,0.6l-0.5,0.6l-0.6-0.6c-0.5-0.5-0.6-0.6-0.9-0.6c-0.3,0-0.4,0.1-0.8,0.6l-0.5,0.6
	l-0.6-0.6c-0.5-0.5-0.6-0.6-0.9-0.6c-0.3,0-0.4,0.1-0.9,0.6L11,14.9l-0.6-0.6c-0.5-0.6-0.6-0.6-0.9-0.6c-0.3,0-0.4,0.1-0.9,0.6
	l-0.6,0.6l-0.5-0.6c-0.5-0.6-0.6-0.6-0.8-0.6c-0.3,0-0.4,0.1-0.9,0.6l-0.6,0.6l-0.5-0.6c-0.5-0.6-0.6-0.6-0.8-0.6
	c-0.3,0-0.4,0.1-0.9,0.6l-0.5,0.6L2,14.2c-0.5-0.5-0.6-0.6-0.8-0.6C0.9,13.6,0.8,13.7,0.6,13.9z"/>
</svg>
