<?xml version="1.0" encoding="utf-8"?>
<!-- Generator: Adobe Illustrator 21.0.0, SVG Export Plug-In . SVG Version: 6.00 Build 0)  -->
<svg version="1.1" id="Layer_1" xmlns="http://www.w3.org/2000/svg" xmlns:xlink="http://www.w3.org/1999/xlink" x="0px" y="0px"
	 viewBox="0 0 512 512" style="enable-background:new 0 0 512 512;" xml:space="preserve">
<style type="text/css">
	.st0{fill:#FFFFFF;}
</style>
<g>
	<g>
		<g>
			<path class="st0" d="M264.8,110.9c4.7,0,8.5-3.8,8.5-8.5s-3.8-8.5-8.5-8.5h-0.1c-4.7,0-8.5,3.8-8.5,8.5S260.1,110.9,264.8,110.9z
				"/>
			<path class="st0" d="M196.5,93.9c4.7,0,8.5-3.8,8.5-8.5s-3.8-8.5-8.5-8.5h-0.1c-4.7,0-8.5,3.8-8.5,8.5S191.8,93.9,196.5,93.9z"/>
			<path class="st0" d="M316,76.8c4.7,0,8.5-3.8,8.5-8.5s-3.8-8.5-8.5-8.5h-0.1c-4.7,0-8.5,3.8-8.5,8.5S311.3,76.8,316,76.8z"/>
			<path class="st0" d="M384.3,93.9c4.7,0,8.5-3.8,8.5-8.5s-3.8-8.5-8.5-8.5h-0.1c-4.7,0-8.5,3.8-8.5,8.5S379.5,93.9,384.3,93.9z"/>
			<path class="st0" d="M350.1,110.9c4.7,0,8.5-3.8,8.5-8.5s-3.8-8.5-8.5-8.5H350c-4.7,0-8.5,3.8-8.5,8.5S345.4,110.9,350.1,110.9z"
				/>
			<path class="st0" d="M247.7,59.7c4.7,0,8.5-3.8,8.5-8.5s-3.8-8.5-8.5-8.5h-0.1c-4.7,0-8.5,3.8-8.5,8.5S243,59.7,247.7,59.7z"/>
			<path class="st0" d="M469.3,418.1H42.7c-14.1,0-25.6,11.5-25.6,25.6v17.1c0,23.5,19.1,42.7,42.7,42.7h392.5
				c23.5,0,42.7-19.1,42.7-42.7v-17.1C494.9,429.6,483.5,418.1,469.3,418.1z M477.9,460.8c0,14.1-11.5,25.6-25.6,25.6H59.7
				c-14.1,0-25.6-11.5-25.6-25.6v-17.1c0-4.7,3.8-8.5,8.5-8.5h426.7c4.7,0,8.5,3.8,8.5,8.5L477.9,460.8L477.9,460.8z"/>
			<path class="st0" d="M40.2,398.6c4.1-4.1,17.1-14.6,28.1-14.6c4.8,0,6.9,1.9,11,6c4.7,4.7,11,11,23.1,11s18.4-6.4,23.1-11
				c4.2-4.2,6.2-6,11-6c4.8,0,6.9,1.9,11,6c4.7,4.7,11,11,23.1,11c12.1,0,18.4-6.4,23.1-11c4.2-4.2,6.2-6,11-6c4.8,0,6.9,1.9,11,6
				c4.7,4.7,11,11,23.1,11c12.1,0,18.4-6.4,23.1-11c4.2-4.2,6.2-6,11-6s6.9,1.9,11,6c4.7,4.7,11,11,23.1,11s18.4-6.4,23.1-11
				c4.2-4.2,6.2-6,11-6s6.9,1.9,11,6c4.7,4.7,11,11,23.1,11s18.4-6.4,23.1-11c4.2-4.2,6.2-6,11-6s6.9,1.9,11,6
				c4.7,4.7,11,11,23.1,11c20,0,38.2-17.6,40.2-19.6c3.3-3.3,3.3-8.7,0-12s-8.7-3.4-12.1,0c-4.1,4.1-17.1,14.6-28.1,14.6
				c-4.8,0-6.9-1.9-11-6c-4.7-4.7-11-11-23.1-11s-18.4,6.4-23.1,11c-4.2,4.2-6.2,6-11,6s-6.9-1.9-11-6c-4.7-4.7-11-11-23.1-11
				s-18.4,6.4-23.1,11c-4.2,4.2-6.2,6-11,6s-6.9-1.9-11-6c-4.7-4.7-11-11-23.1-11s-18.4,6.4-23.1,11c-4.2,4.2-6.2,6-11,6
				s-6.9-1.9-11-6c-4.7-4.7-11-11-23.1-11c-12.1,0-18.4,6.4-23.1,11c-4.2,4.2-6.2,6-11,6c-4.8,0-6.9-1.9-11-6
				c-4.7-4.7-11-11-23.1-11s-18.4,6.4-23.1,11c-4.2,4.2-6.2,6-11,6c-4.8,0-6.9-1.9-11-6c-4.7-4.7-11-11-23.1-11
				c-20,0-38.2,17.6-40.2,19.6c-3.3,3.3-3.3,8.7,0,12C31.4,401.9,36.8,401.9,40.2,398.6z"/>
			<path class="st0" d="M486.4,281.6H221.9c-4.7,0-8.5,3.8-8.5,8.5s3.8,8.5,8.5,8.5h264.5c4.7,0,8.5,3.8,8.5,8.5v17.1
				c0,4.7-3.8,8.5-8.5,8.5H25.6c-4.7,0-8.5-3.8-8.5-8.5v-17.1c0-4.7,3.8-8.5,8.5-8.5h76.8c4.7,0,8.5-3.8,8.5-8.5s-3.8-8.5-8.5-8.5
				H25.6C11.5,281.6,0,293.1,0,307.2v17.1c0,14.1,11.5,25.6,25.6,25.6h460.8c14.1,0,25.6-11.5,25.6-25.6v-17.1
				C512,293.1,500.5,281.6,486.4,281.6z"/>
			<path class="st0" d="M213.3,247.5c-2.3,0-4.4,0.9-6,2.5l-45.2,45.2L117,250c-1.6-1.6-3.8-2.5-6-2.5H42.7c-4.7,0-8.5,3.8-8.5,8.5
				s3.8,8.5,8.5,8.5h64.7l48.7,48.7c1.7,1.7,3.8,2.5,6,2.5c2.2,0,4.4-0.8,6-2.5l48.7-48.7h252.5c4.7,0,8.5-3.8,8.5-8.5
				s-3.8-8.5-8.5-8.5L213.3,247.5L213.3,247.5z"/>
			<path class="st0" d="M145.3,76.8c4.7,0,8.5-3.8,8.5-8.5s-3.8-8.5-8.5-8.5h-0.1c-4.7,0-8.5,3.8-8.5,8.5S140.6,76.8,145.3,76.8z"/>
			<path class="st0" d="M42.7,230.4h426.7c14.8,0,25.6-10.8,25.6-24.8c0.3-2.9,6-72.8-45.5-129.2C408.3,31.4,343.2,8.5,256,8.5
				S103.7,31.4,62.6,76.4c-51.5,56.4-45.8,126.2-45.5,128.4C17.1,219.6,27.8,230.4,42.7,230.4z M75.2,87.9
				C113,46.6,173.8,25.6,256,25.6c82.1,0,142.9,20.9,180.6,62.1c46.4,50.7,41.3,115.7,41.2,117.1c0,5.5-3,8.5-8.5,8.5H42.7
				c-5.4,0-8.5-3.1-8.6-9.3C34,203.4,28.8,138.8,75.2,87.9z"/>
		</g>
	</g>
</g>
</svg>
