<svg id="Layer_1" data-name="Layer 1" xmlns="http://www.w3.org/2000/svg" viewBox="0 0 199.37 52.65"><title>Untitled-1</title><path d="M207,310.28l.13.08.16.11a.61.61,0,0,1,.12.12.19.19,0,0,1,.05.12.12.12,0,0,1,0,.07,7.29,7.29,0,0,1-1.06,1.2,6.6,6.6,0,0,1-1.18.84,5.16,5.16,0,0,1-1.24.49,4.88,4.88,0,0,1-1.25.17,4.33,4.33,0,0,1-1.93-.43,4.63,4.63,0,0,1-1.51-1.18,5.62,5.62,0,0,1-1-1.75,6.54,6.54,0,0,1-.35-2.16,8.93,8.93,0,0,1,.2-1.88,9.21,9.21,0,0,1,.6-1.79,8.31,8.31,0,0,1,1-1.58,6.56,6.56,0,0,1,1.27-1.27,5.93,5.93,0,0,1,1.57-.85,5.45,5.45,0,0,1,1.85-.31,4.31,4.31,0,0,1,1.24.18,3.19,3.19,0,0,1,1,.51,2.42,2.42,0,0,1,.71.81,2.26,2.26,0,0,1,.26,1.1,2.29,2.29,0,0,1-.59,1.56,4.61,4.61,0,0,1-1.61,1.13,11.62,11.62,0,0,1-2.43.76,26.94,26.94,0,0,1-3,.42v.15a7.1,7.1,0,0,0,.28,2.06,5.23,5.23,0,0,0,.79,1.6,3.7,3.7,0,0,0,1.18,1,3,3,0,0,0,1.46.37,3.8,3.8,0,0,0,1.62-.39A6,6,0,0,0,207,310.28Zm-1.65-7.06a2,2,0,0,0-.14-.76,1.74,1.74,0,0,0-.38-.61,1.68,1.68,0,0,0-.57-.41,1.74,1.74,0,0,0-.72-.15,2.58,2.58,0,0,0-1,.2,2.84,2.84,0,0,0-.83.55,3.72,3.72,0,0,0-.65.81,6,6,0,0,0-.48,1,8.22,8.22,0,0,0-.32,1.06A8.93,8.93,0,0,0,200,306a16.12,16.12,0,0,0,2.23-.3,7.42,7.42,0,0,0,1.67-.55,3,3,0,0,0,1-.81A1.74,1.74,0,0,0,205.34,303.22Zm11.2.75a2.93,2.93,0,0,0-.23-1.2,2.4,2.4,0,0,0-.6-.83,2.44,2.44,0,0,0-.83-.48,2.88,2.88,0,0,0-.93-.16,3.64,3.64,0,0,0-1.05.13,2,2,0,0,0-.7.36,1.37,1.37,0,0,0-.39.54,1.9,1.9,0,0,0-.11.67,2.59,2.59,0,0,0,.15.85,3.41,3.41,0,0,0,.46.83l0,.1a2.27,2.27,0,0,1-1,.25,1.77,1.77,0,0,1-.56-.09,1.39,1.39,0,0,1-.45-.27,1.35,1.35,0,0,1-.3-.43,1.48,1.48,0,0,1-.11-.57,2,2,0,0,1,.25-1,3.32,3.32,0,0,1,.67-.84,4.91,4.91,0,0,1,1-.68,7.4,7.4,0,0,1,1.13-.5,7.11,7.11,0,0,1,1.16-.32,5.75,5.75,0,0,1,1.09-.11,4.46,4.46,0,0,1,1.57.25,2.52,2.52,0,0,1,1.06.72,2.81,2.81,0,0,1,.6,1.13,5.44,5.44,0,0,1,.19,1.51q0,.58-.05,1.27t-.11,1.46q-.06.76-.11,1.56t0,1.61a3.24,3.24,0,0,0,.47,1.91,1.48,1.48,0,0,0,1.24.63,3,3,0,0,0,1.51-.5l.25.38a4.24,4.24,0,0,1-1.28.9,3.56,3.56,0,0,1-1.46.31,2.81,2.81,0,0,1-1.05-.19,2.29,2.29,0,0,1-.83-.57,2.67,2.67,0,0,1-.54-1,4.25,4.25,0,0,1-.19-1.34q0-.23,0-.46t.06-.48h-.05a13.1,13.1,0,0,1-.88,1.49,8.24,8.24,0,0,1-1.09,1.31,5.38,5.38,0,0,1-1.27.92,2.92,2.92,0,0,1-1.41.36,2.83,2.83,0,0,1-1.11-.21,2.6,2.6,0,0,1-.86-.58,2.73,2.73,0,0,1-.55-.87,3.1,3.1,0,0,1-.19-1.11,3.43,3.43,0,0,1,.28-1.41,3.88,3.88,0,0,1,.79-1.13,4.91,4.91,0,0,1,1.21-.86,8.07,8.07,0,0,1,1.53-.61,10.74,10.74,0,0,1,1.75-.36,14.22,14.22,0,0,1,1.88-.12q.06-.55.1-1.07T216.54,304Zm-5.4,6a3,3,0,0,0,.07.66,1.77,1.77,0,0,0,.24.54,1.27,1.27,0,0,0,.41.38,1.3,1.3,0,0,0,.61.13,2,2,0,0,0,.82-.18,3.66,3.66,0,0,0,.83-.51,5.12,5.12,0,0,0,.78-.77,6.58,6.58,0,0,0,.68-1,6.42,6.42,0,0,0,.49-1.12,5.48,5.48,0,0,0,.26-1.22q-.65,0-1.29.09a8.71,8.71,0,0,0-1.22.2,5.82,5.82,0,0,0-1.06.37,3.15,3.15,0,0,0-.85.57,2.41,2.41,0,0,0-.55.8A2.61,2.61,0,0,0,211.14,310Zm12.21-.18a2.56,2.56,0,0,0,1.08,1.94,3.09,3.09,0,0,0,.95.46,3.82,3.82,0,0,0,1,.15,3.28,3.28,0,0,0,.93-.13,2.6,2.6,0,0,0,.79-.38,1.86,1.86,0,0,0,.55-.61,1.57,1.57,0,0,0,.21-.81,1.51,1.51,0,0,0-.22-.82,2.52,2.52,0,0,0-.59-.64,5,5,0,0,0-.86-.54l-1-.5-.94-.44q-.47-.23-.91-.49a7.63,7.63,0,0,1-.83-.57,4.28,4.28,0,0,1-.67-.68,3.27,3.27,0,0,1-.45-.84,3.18,3.18,0,0,1-.16-1,2.89,2.89,0,0,1,.21-1.12,3.2,3.2,0,0,1,.57-.91,4.16,4.16,0,0,1,.84-.72,5.43,5.43,0,0,1,1-.51,5.73,5.73,0,0,1,1.12-.31,6.28,6.28,0,0,1,1.13-.11,5.38,5.38,0,0,1,1.33.16,3.51,3.51,0,0,1,1.1.45,2.3,2.3,0,0,1,.75.71,1.67,1.67,0,0,1,.28.95,1.55,1.55,0,0,1-.07.44,1.33,1.33,0,0,1-.24.45,1.38,1.38,0,0,1-.44.34,1.52,1.52,0,0,1-.67.15,2.84,2.84,0,0,1-.77-.11l0-.09a2.86,2.86,0,0,0,.18-.52,2,2,0,0,0,.05-.44,1.15,1.15,0,0,0-.21-.68,1.53,1.53,0,0,0-.49-.46,2.23,2.23,0,0,0-.67-.25,3.31,3.31,0,0,0-.71-.08,3.47,3.47,0,0,0-1.12.17,2.64,2.64,0,0,0-.83.45,2,2,0,0,0-.52.62,1.61,1.61,0,0,0-.18.73,1.55,1.55,0,0,0,.25.87,3,3,0,0,0,.68.7,6.83,6.83,0,0,0,1,.6L227,306q.67.32,1.33.66a6.27,6.27,0,0,1,1.18.76,3.54,3.54,0,0,1,.84,1,2.54,2.54,0,0,1,.33,1.31,3.17,3.17,0,0,1-.4,1.61,3.67,3.67,0,0,1-1.06,1.19,4.85,4.85,0,0,1-1.54.73,6.28,6.28,0,0,1-1.79.25,7,7,0,0,1-1-.07,6.49,6.49,0,0,1-1-.21,6.2,6.2,0,0,1-.89-.34,3.92,3.92,0,0,1-.73-.47,2.35,2.35,0,0,1-.49-.6,1.54,1.54,0,0,1-.18-.73,1.12,1.12,0,0,1,.14-.58,1.22,1.22,0,0,1,.39-.39,1.76,1.76,0,0,1,.53-.22,2.66,2.66,0,0,1,.61-.09Zm13.06,3.25q-.23-.83-.49-1.75t-.53-1.84q-.26-.92-.54-1.82t-.52-1.7q-.25-.81-.47-1.49t-.4-1.2a6.14,6.14,0,0,0-.36-.84,2,2,0,0,0-.35-.52,1,1,0,0,0-.39-.25,1.36,1.36,0,0,0-.45-.07,3.14,3.14,0,0,0-.6.06l-.77.17-.13-.63,1-.35.94-.27q.43-.11.76-.18a3.09,3.09,0,0,1,.53-.06,1.17,1.17,0,0,1,.43.08,1.1,1.1,0,0,1,.4.28,2.1,2.1,0,0,1,.39.54,6.16,6.16,0,0,1,.37.87q.12.33.29.86t.38,1.19q.2.66.43,1.44t.46,1.63q.24.84.47,1.73t.44,1.76l.91-2.4,1-2.52,1-2.5.95-2.38a.88.88,0,0,1,.21-.32,1.13,1.13,0,0,1,.31-.19,1.22,1.22,0,0,1,.34-.11,1.93,1.93,0,0,1,.36,0,1.82,1.82,0,0,1,.56.09,3.07,3.07,0,0,1,.52.2q-.4.64-.83,1.43t-.87,1.68q-.45.89-.91,1.85t-.9,2q-.45,1-.89,2t-.83,2q-.41,1-.78,2l-.72,1.88q-.35.91-.69,1.75t-.69,1.57a12.17,12.17,0,0,1-.71,1.26,5.15,5.15,0,0,1-.83,1,3.6,3.6,0,0,1-1,.68,2.91,2.91,0,0,1-1.21.25,2.3,2.3,0,0,1-.75-.11,1.7,1.7,0,0,1-.56-.29,1.2,1.2,0,0,1-.36-.41,1.07,1.07,0,0,1-.12-.5,1.25,1.25,0,0,1,.18-.61,1.15,1.15,0,0,1,.45-.47,2.68,2.68,0,0,0,.75.33,2.76,2.76,0,0,0,.68.1,2.14,2.14,0,0,0,1.27-.4,3.92,3.92,0,0,0,1.05-1.17,13.47,13.47,0,0,0,1-2q.5-1.18,1.11-2.76l.18-.47Zm8.6-13.74a6.33,6.33,0,0,0,.83-.79,5.43,5.43,0,0,0,.62-.89,4.35,4.35,0,0,0,.39-.91,3.13,3.13,0,0,0,.14-.91,1.62,1.62,0,0,0-.11-.63,1.37,1.37,0,0,0-.25-.42,2.34,2.34,0,0,0-.33-.31,4,4,0,0,1-.33-.3,1.5,1.5,0,0,1-.26-.39,1.43,1.43,0,0,1-.1-.57,1.29,1.29,0,0,1,.1-.49,1.36,1.36,0,0,1,.29-.43,1.46,1.46,0,0,1,.44-.3,1.36,1.36,0,0,1,.56-.11,1.56,1.56,0,0,1,.76.18,1.51,1.51,0,0,1,.55.47,2.13,2.13,0,0,1,.33.73,3.49,3.49,0,0,1,.11.91,5.43,5.43,0,0,1-.2,1.42,6.63,6.63,0,0,1-.6,1.49,8,8,0,0,1-1,1.46,8.16,8.16,0,0,1-1.48,1.29Zm34.27,13q-.63.27-1.17.47t-1,.32a7,7,0,0,1-.85.19,5,5,0,0,1-.76.06,1.9,1.9,0,0,1-.88-.19,1.51,1.51,0,0,1-.63-.62,3.53,3.53,0,0,1-.37-1.13,10.33,10.33,0,0,1-.12-1.74v-2q0-.72,0-1.52l0-1.64q0-.84,0-1.61t0-1.46q0-.68,0-1.15,0-1,.1-2t.16-2l-.07,0q-.15.4-.36.91t-.54,1.21q-.77,1.71-1.58,3.53l-1.63,3.74-1.65,3.86-1.66,3.9-.43,0q-.18-.6-.45-1.41t-.58-1.76q-.32-.95-.68-2t-.72-2.13q-.37-1.08-.75-2.15l-.72-2.07q-.34-1-.66-1.86l-.55-1.56-.49-1.42-.35-1.09-.06,0v.53q0,.25,0,.55v1.45q0,1.4,0,2.86t-.11,2.87q-.07,1.41-.17,2.72t-.2,2.43q-.09.92-.17,1.57a10.42,10.42,0,0,1-.17,1.08,2.7,2.7,0,0,1-.22.69,1,1,0,0,1-.33.38,1.07,1.07,0,0,1-.48.17,5.57,5.57,0,0,1-.68,0h-.74l-.12-.09a13,13,0,0,0,.73-1.9,23,23,0,0,0,.56-2.23q.25-1.18.42-2.43t.29-2.52q.12-1.26.19-2.48t.11-2.32q0-1.1,0-2t0-1.63a3.66,3.66,0,0,0-.06-.74.93.93,0,0,0-.22-.46.75.75,0,0,0-.42-.24,2.74,2.74,0,0,0-.69-.07,5.86,5.86,0,0,0-.67,0l-.83.11-.1-.77q1.61-.37,2.65-.54a10,10,0,0,1,1.65-.18,2.12,2.12,0,0,1,.54.06.93.93,0,0,1,.4.19,1.18,1.18,0,0,1,.31.36,3.32,3.32,0,0,1,.25.55l1,2.77,1.05,3q.54,1.53,1.08,3.07t1,3l.35,1q.17.47.3.87t.25.76q.12.36.23.72h.06q.14-.38.29-.74l.32-.76.36-.84.45-1,1.27-2.92,1.36-3.09,1.42-3.21,1.45-3.26a.82.82,0,0,1,.21-.29,1.11,1.11,0,0,1,.3-.18,1.43,1.43,0,0,1,.34-.1l.33,0a2.43,2.43,0,0,1,.55.07,2.87,2.87,0,0,1,.59.18q-.13,1.44-.24,2.76t-.17,2.57q-.07,1.25-.12,2.47t-.08,2.45q0,1.24,0,2.53t0,2.7a13.63,13.63,0,0,0,.08,1.59,3.67,3.67,0,0,0,.27,1.08,1.37,1.37,0,0,0,.54.61,1.65,1.65,0,0,0,.83.19h.35l.36,0,.4-.1.52-.16Zm7.89-8.38a2.93,2.93,0,0,0-.23-1.2,2.4,2.4,0,0,0-.6-.83,2.44,2.44,0,0,0-.83-.48,2.88,2.88,0,0,0-.93-.16,3.64,3.64,0,0,0-1.05.13,2,2,0,0,0-.7.36,1.37,1.37,0,0,0-.39.54,1.9,1.9,0,0,0-.11.67,2.59,2.59,0,0,0,.15.85,3.41,3.41,0,0,0,.46.83l0,.1a2.27,2.27,0,0,1-1,.25,1.77,1.77,0,0,1-.56-.09,1.4,1.4,0,0,1-.45-.27,1.35,1.35,0,0,1-.3-.43,1.48,1.48,0,0,1-.11-.57,2,2,0,0,1,.25-1,3.33,3.33,0,0,1,.67-.84,4.91,4.91,0,0,1,1-.68,7.4,7.4,0,0,1,1.13-.5,7.11,7.11,0,0,1,1.16-.32,5.75,5.75,0,0,1,1.09-.11,4.46,4.46,0,0,1,1.57.25,2.52,2.52,0,0,1,1.06.72,2.81,2.81,0,0,1,.6,1.13,5.44,5.44,0,0,1,.19,1.51q0,.58-.05,1.27t-.11,1.46q-.06.76-.11,1.56t0,1.61a3.24,3.24,0,0,0,.47,1.91,1.48,1.48,0,0,0,1.24.63,3,3,0,0,0,1.51-.5l.25.38a4.24,4.24,0,0,1-1.28.9,3.56,3.56,0,0,1-1.46.31,2.81,2.81,0,0,1-1.05-.19,2.29,2.29,0,0,1-.83-.57,2.67,2.67,0,0,1-.54-1,4.25,4.25,0,0,1-.19-1.34q0-.23,0-.46t.06-.48h-.05a13.09,13.09,0,0,1-.88,1.49,8.24,8.24,0,0,1-1.09,1.31,5.38,5.38,0,0,1-1.27.92,2.92,2.92,0,0,1-1.41.36,2.83,2.83,0,0,1-1.11-.21,2.59,2.59,0,0,1-.86-.58,2.73,2.73,0,0,1-.55-.87,3.1,3.1,0,0,1-.19-1.11,3.43,3.43,0,0,1,.28-1.41,3.88,3.88,0,0,1,.79-1.13,4.91,4.91,0,0,1,1.21-.86,8.07,8.07,0,0,1,1.53-.61,10.74,10.74,0,0,1,1.75-.36,14.22,14.22,0,0,1,1.88-.12q.06-.55.1-1.07T287.17,304Zm-5.4,6a3,3,0,0,0,.07.66,1.77,1.77,0,0,0,.24.54,1.27,1.27,0,0,0,.41.38,1.3,1.3,0,0,0,.61.13,2,2,0,0,0,.82-.18,3.66,3.66,0,0,0,.83-.51,5.12,5.12,0,0,0,.78-.77,6.58,6.58,0,0,0,.68-1,6.42,6.42,0,0,0,.49-1.12,5.49,5.49,0,0,0,.26-1.22q-.65,0-1.29.09a8.71,8.71,0,0,0-1.22.2,5.82,5.82,0,0,0-1.06.37,3.15,3.15,0,0,0-.85.57,2.41,2.41,0,0,0-.55.8A2.61,2.61,0,0,0,281.77,310ZM294,313.23h-.14q.07-.83.13-1.82t.11-2q.05-1,.09-2t.07-1.86q0-.87,0-1.56t0-1.08a5.17,5.17,0,0,0,0-.56,1,1,0,0,0-.12-.4.51.51,0,0,0-.26-.23,1.17,1.17,0,0,0-.47-.08l-.31,0-.35.05-.44.1-.55.13-.13-.63a22,22,0,0,1,2.36-.74,6.46,6.46,0,0,1,1.22-.22,1,1,0,0,1,.83.34,1.64,1.64,0,0,1,.25,1s0,.16,0,.36,0,.46-.05.78,0,.69-.07,1.11-.06.88-.11,1.36-.08,1-.12,1.51-.1,1-.15,1.56h.09a33.25,33.25,0,0,1,.95-3.21,14.66,14.66,0,0,1,1.2-2.59,6.37,6.37,0,0,1,1.46-1.72,2.76,2.76,0,0,1,1.75-.63,1.82,1.82,0,0,1,.62.11,1.49,1.49,0,0,1,.5.3,1.35,1.35,0,0,1,.33.45,1.28,1.28,0,0,1,.12.56,1.76,1.76,0,0,1-.18.76,1.72,1.72,0,0,1-.54.64h-.07a2.65,2.65,0,0,0-.7-.44,1.73,1.73,0,0,0-.69-.14,2,2,0,0,0-.76.15,2.24,2.24,0,0,0-.68.43,4.93,4.93,0,0,0-.93,1.21,12.5,12.5,0,0,0-.79,1.66q-.35.91-.64,1.92t-.49,2q-.2.95-.33,1.79t-.18,1.41Zm14.19-5.89a13.56,13.56,0,0,0,1.93-.8,8.53,8.53,0,0,0,1.49-1,4.21,4.21,0,0,0,1-1.07,2.18,2.18,0,0,0,.34-1.15,1,1,0,0,0-.1-.45,1,1,0,0,0-.25-.35,1,1,0,0,0-.36-.23,1.19,1.19,0,0,0-.44-.08,2.32,2.32,0,0,0-1.15.34,5.05,5.05,0,0,0-1.18,1,10,10,0,0,0-1.13,1.59,15.53,15.53,0,0,0-1,2.14,23.19,23.19,0,0,0-.85,2.63,26.53,26.53,0,0,0-.61,3.06l-1.78.23h-.14q.05-1,.12-2.29t.14-2.66q.08-1.41.16-2.93t.17-3.11q.09-1.58.18-3.19t.17-3.17q.09-1.57.17-3.08t.15-2.87a.62.62,0,0,1,.12-.36.79.79,0,0,1,.29-.25,1.5,1.5,0,0,1,.41-.14,2.5,2.5,0,0,1,.47,0,2.54,2.54,0,0,1,1.11.28q-.2,1.8-.36,3.3t-.29,2.79q-.12,1.28-.23,2.41t-.19,2.14q-.08,1-.16,2l-.14,2q-.07,1-.15,2.09t-.16,2.32H306a20.78,20.78,0,0,1,.75-2.07,18.44,18.44,0,0,1,.95-1.93,14,14,0,0,1,1.12-1.7,9,9,0,0,1,1.25-1.34,5.64,5.64,0,0,1,1.35-.88,3.29,3.29,0,0,1,1.41-.33,2.23,2.23,0,0,1,.83.15,1.79,1.79,0,0,1,.65.41,1.76,1.76,0,0,1,.43.64,2.17,2.17,0,0,1,.16.84,3.34,3.34,0,0,1-.32,1.42,5.12,5.12,0,0,1-.9,1.32,8.5,8.5,0,0,1-1.4,1.2,13.54,13.54,0,0,1-1.8,1q.59,1.08,1.05,1.85t.85,1.29a7.72,7.72,0,0,0,.69.83,3.25,3.25,0,0,0,.56.47,1.73,1.73,0,0,0,.49.21,2.41,2.41,0,0,0,.46,0,3.45,3.45,0,0,0,.95-.14,7.09,7.09,0,0,0,1-.37l.17.46a5.43,5.43,0,0,1-.8.52,9.81,9.81,0,0,1-1,.48,7.63,7.63,0,0,1-1.07.35,3.68,3.68,0,0,1-.93.14,1.59,1.59,0,0,1-.95-.35,5.22,5.22,0,0,1-1-1.07,21.12,21.12,0,0,1-1.19-1.85q-.65-1.12-1.49-2.68ZM326,310.28l.13.08a.73.73,0,0,1,.16.11.6.6,0,0,1,.12.12.19.19,0,0,1,.05.12.12.12,0,0,1,0,.07,7.33,7.33,0,0,1-1.06,1.2,6.57,6.57,0,0,1-1.18.84,5.15,5.15,0,0,1-1.24.49,4.88,4.88,0,0,1-1.25.17,4.34,4.34,0,0,1-1.93-.43,4.64,4.64,0,0,1-1.51-1.18,5.61,5.61,0,0,1-1-1.75A6.52,6.52,0,0,1,317,308a8.91,8.91,0,0,1,.2-1.88,9.22,9.22,0,0,1,.6-1.79,8.32,8.32,0,0,1,1-1.58,6.58,6.58,0,0,1,1.27-1.27,5.94,5.94,0,0,1,1.57-.85,5.45,5.45,0,0,1,1.85-.31,4.3,4.3,0,0,1,1.24.18,3.19,3.19,0,0,1,1,.51,2.42,2.42,0,0,1,.71.81,2.27,2.27,0,0,1,.26,1.1,2.29,2.29,0,0,1-.59,1.56,4.6,4.6,0,0,1-1.61,1.13,11.61,11.61,0,0,1-2.43.76,26.89,26.89,0,0,1-3,.42v.15a7.08,7.08,0,0,0,.28,2.06,5.23,5.23,0,0,0,.79,1.6,3.7,3.7,0,0,0,1.18,1,3,3,0,0,0,1.46.37,3.8,3.8,0,0,0,1.62-.39A6,6,0,0,0,326,310.28Zm-1.65-7.06a2,2,0,0,0-.14-.76,1.74,1.74,0,0,0-.38-.61,1.68,1.68,0,0,0-.57-.41,1.75,1.75,0,0,0-.72-.15,2.58,2.58,0,0,0-1,.2,2.85,2.85,0,0,0-.83.55,3.7,3.7,0,0,0-.65.81,6,6,0,0,0-.48,1,8.2,8.2,0,0,0-.32,1.06,8.91,8.91,0,0,0-.18,1.06,16.15,16.15,0,0,0,2.23-.3,7.44,7.44,0,0,0,1.67-.55,3,3,0,0,0,1-.81A1.74,1.74,0,0,0,324.38,303.22Zm8.39-9.22q-.37,1.67-.62,3.45t-.42,3.51l.8,0,.73,0h1.08a7.25,7.25,0,0,0,1.31-.1c0,.1.05.19.07.27a1.13,1.13,0,0,1,0,.23.48.48,0,0,1-.32.5,2.86,2.86,0,0,1-.92.11q-.58,0-1.3-.07l-1.56-.13q-.1.94-.17,1.84t-.1,1.68q0,.79-.05,1.47t0,1.18a12.94,12.94,0,0,0,.1,1.68,4.2,4.2,0,0,0,.34,1.26,1.85,1.85,0,0,0,.68.78,2,2,0,0,0,1.09.27,3.85,3.85,0,0,0,1.06-.17,8,8,0,0,0,1.34-.54.93.93,0,0,1,.27.58q-.54.36-1.1.66a11.17,11.17,0,0,1-1.09.5,7.26,7.26,0,0,1-1,.33,4.28,4.28,0,0,1-.95.11,2.63,2.63,0,0,1-1.08-.22,2,2,0,0,1-.84-.76,4.6,4.6,0,0,1-.55-1.49,11.89,11.89,0,0,1-.19-2.36q0-.8,0-1.64t.07-1.72q0-.87.11-1.74t.16-1.71q-.69,0-1.29.06a6.09,6.09,0,0,0-1,.15.27.27,0,0,1,0-.12.46.46,0,0,1,.18-.34,1.77,1.77,0,0,1,.5-.3,4.26,4.26,0,0,1,.77-.22,7.79,7.79,0,0,1,1-.12q.2-1.84.43-3.47t.46-2.92a.89.89,0,0,1,.16-.38,1,1,0,0,1,.28-.24,1.15,1.15,0,0,1,.34-.12,1.92,1.92,0,0,1,.36,0,2,2,0,0,1,.52.06A1.82,1.82,0,0,1,332.76,294Z" transform="translate(-136.78 -270.18)"/><path d="M180.48,275.86h-2.32v3.34H174.7v2.23h3.46v3.35h2.32v-3.35h3.47v-2.23h-3.47Z" transform="translate(-136.78 -270.18)"/><path d="M147.36,273.32a1.11,1.11,0,0,0-1.16-.89h-9.42v2.25h8.48l7.66,29.9a1.11,1.11,0,0,0,1.16.89h29.86v-2.25h-29Z" transform="translate(-136.78 -270.18)"/><path d="M180.58,308.93H154.09v2.25h26.48Z" transform="translate(-136.78 -270.18)"/><path d="M179.19,314.08a4.54,4.54,0,0,0-4.53,4.37,4.53,4.53,0,0,0,9.06,0A4.54,4.54,0,0,0,179.19,314.08Zm0,6.49a2.25,2.25,0,0,1-2.2-2.13,2.21,2.21,0,0,1,4.41,0A2.24,2.24,0,0,1,179.19,320.57Z" transform="translate(-136.78 -270.18)"/><path d="M157.11,314.08a4.54,4.54,0,0,0-4.53,4.37,4.46,4.46,0,0,0,4.53,4.37,4.37,4.37,0,1,0,0-8.74Zm0,6.49a2.25,2.25,0,0,1-2.2-2.13,2.16,2.16,0,0,1,2.2-2.13,2.13,2.13,0,1,1,0,4.25Z" transform="translate(-136.78 -270.18)"/><path d="M190.22,280.26a10.46,10.46,0,0,0-20.91,0v.23H153.62a1.13,1.13,0,0,0-1.16,1.46l5,17a1.25,1.25,0,0,0,1.16.78h25.33a1.36,1.36,0,0,0,1.28-.89s4.65-16,4.73-16.32A10.38,10.38,0,0,0,190.22,280.26Zm-35.08,2.47h14.48a9.82,9.82,0,0,0,1.67,3.47H156.06ZM183,297.51H159.44l-.92-3.47h25.56Zm1.75-5.71H157.82l-1-3.36h16.8a10.86,10.86,0,0,0,12.1.12Zm-5-3.7a7.85,7.85,0,1,1,8.13-7.84A7.94,7.94,0,0,1,179.76,288.1Z" transform="translate(-136.78 -270.18)"/></svg>