<?xml version="1.0" encoding="utf-8"?>
<!-- Generator: Adobe Illustrator 21.0.0, SVG Export Plug-In . SVG Version: 6.00 Build 0)  -->
<svg version="1.1" id="Layer_1" xmlns="http://www.w3.org/2000/svg" xmlns:xlink="http://www.w3.org/1999/xlink" x="0px" y="0px"
	 viewBox="0 0 45 52" style="enable-background:new 0 0 45 52;" xml:space="preserve">
<style type="text/css">
	.st0{clip-path:url(#SVGID_2_);}
	.st1{fill:#2E3E50;}
</style>
<g>
	<defs>
		<rect id="SVGID_1_" width="45" height="52"/>
	</defs>
	<clipPath id="SVGID_2_">
		<use xlink:href="#SVGID_1_"  style="overflow:visible;"/>
	</clipPath>
	<g class="st0">
		<path class="st1" d="M11.3,5.7v40.7c0,0.2,0.1,0.3,0.3,0.3h21.6c0.2,0,0.3-0.1,0.3-0.3V5.7c0-0.2-0.1-0.3-0.3-0.3H11.6
			C11.4,5.4,11.3,5.5,11.3,5.7z M11.9,6.1h21v40h-21V6.1z"/>
		<path class="st1" d="M24,47.1h-3.1c-0.6,0-1,0.5-1,1.2V49c0,0.6,0.4,1.2,1,1.2H24c0.6,0,1-0.5,1-1.2v-0.7
			C25,47.6,24.6,47.1,24,47.1z M24.5,49c0,0.3-0.2,0.5-0.4,0.5h-3.1c-0.2,0-0.4-0.2-0.4-0.5v-0.7c0-0.3,0.2-0.5,0.4-0.5H24
			c0.2,0,0.4,0.2,0.4,0.5V49z"/>
		<path class="st1" d="M19.9,3.3h5.6c0.2,0,0.5-0.2,0.5-0.5c0-0.3-0.2-0.5-0.5-0.5h-5.6c-0.2,0-0.5,0.2-0.5,0.5
			C19.4,3.1,19.6,3.3,19.9,3.3z M19.9,2.5h5.6c0.1,0,0.3,0.1,0.3,0.3c0,0.2-0.1,0.3-0.3,0.3h-5.6c-0.1,0-0.3-0.1-0.3-0.3
			C19.6,2.7,19.7,2.5,19.9,2.5z"/>
		<path class="st1" d="M20.2,3c0.1,0,0.1-0.1,0.1-0.1c0-0.1-0.1-0.1-0.1-0.1s-0.1,0.1-0.1,0.1C20.1,2.9,20.1,3,20.2,3z"/>
		<path class="st1" d="M20.6,3c0.1,0,0.1-0.1,0.1-0.1c0-0.1-0.1-0.1-0.1-0.1c-0.1,0-0.1,0.1-0.1,0.1C20.5,2.9,20.5,3,20.6,3z"/>
		<path class="st1" d="M21,3c0.1,0,0.1-0.1,0.1-0.1c0-0.1-0.1-0.1-0.1-0.1c-0.1,0-0.1,0.1-0.1,0.1C20.8,2.9,20.9,3,21,3z"/>
		<path class="st1" d="M21.4,3c0.1,0,0.1-0.1,0.1-0.1c0-0.1-0.1-0.1-0.1-0.1c-0.1,0-0.1,0.1-0.1,0.1C21.2,2.9,21.3,3,21.4,3z"/>
		<path class="st1" d="M21.7,3c0.1,0,0.1-0.1,0.1-0.1c0-0.1-0.1-0.1-0.1-0.1c-0.1,0-0.1,0.1-0.1,0.1C21.6,2.9,21.7,3,21.7,3z"/>
		<path class="st1" d="M22.1,3c0.1,0,0.1-0.1,0.1-0.1c0-0.1-0.1-0.1-0.1-0.1C22,2.7,22,2.7,22,2.8C22,2.9,22,3,22.1,3z"/>
		<path class="st1" d="M22.5,3c0.1,0,0.1-0.1,0.1-0.1c0-0.1-0.1-0.1-0.1-0.1c-0.1,0-0.1,0.1-0.1,0.1C22.4,2.9,22.4,3,22.5,3z"/>
		<path class="st1" d="M22.9,3C22.9,3,23,2.9,23,2.8c0-0.1-0.1-0.1-0.1-0.1c-0.1,0-0.1,0.1-0.1,0.1C22.7,2.9,22.8,3,22.9,3z"/>
		<path class="st1" d="M23.2,2.7c0.1,0,0.1,0.1,0.1,0.1c0,0.1-0.1,0.1-0.1,0.1c-0.1,0-0.1-0.1-0.1-0.1C23.1,2.7,23.2,2.7,23.2,2.7z"
			/>
		<path class="st1" d="M23.6,2.7c0.1,0,0.1,0.1,0.1,0.1c0,0.1-0.1,0.1-0.1,0.1c-0.1,0-0.1-0.1-0.1-0.1C23.5,2.7,23.5,2.7,23.6,2.7z"
			/>
		<path class="st1" d="M24,2.7c0.1,0,0.1,0.1,0.1,0.1C24.1,2.9,24.1,3,24,3c-0.1,0-0.1-0.1-0.1-0.1C23.9,2.7,23.9,2.7,24,2.7z"/>
		<path class="st1" d="M24.4,2.7c0.1,0,0.1,0.1,0.1,0.1c0,0.1-0.1,0.1-0.1,0.1c-0.1,0-0.1-0.1-0.1-0.1C24.2,2.7,24.3,2.7,24.4,2.7z"
			/>
		<path class="st1" d="M24.8,2.7c0.1,0,0.1,0.1,0.1,0.1c0,0.1-0.1,0.1-0.1,0.1c-0.1,0-0.1-0.1-0.1-0.1C24.6,2.7,24.7,2.7,24.8,2.7z"
			/>
		<path class="st1" d="M25.1,2.7c0.1,0,0.1,0.1,0.1,0.1c0,0.1-0.1,0.1-0.1,0.1C25.1,3,25,2.9,25,2.8C25,2.7,25.1,2.7,25.1,2.7z"/>
		<path class="st1" d="M30.2,2.6c0.2,0,0.3,0.2,0.3,0.4c0,0.2-0.1,0.4-0.3,0.4c-0.2,0-0.3-0.2-0.3-0.4C29.9,2.8,30.1,2.6,30.2,2.6z"
			/>
		<path class="st1" d="M16.6,48h-1.5c0,0-0.1,0-0.1,0.1V49c0,0.1,0,0.1,0.1,0.1s0.1,0,0.1-0.1v-0.8h1.3V49c0,0.1,0,0.1,0.1,0.1
			c0,0,0.1,0,0.1-0.1L16.6,48C16.7,48.1,16.6,48,16.6,48z"/>
		<path class="st1" d="M16.2,48.4h-0.7c0,0-0.1,0-0.1,0.1c0,0.1,0,0.1,0.1,0.1h0.7C16.2,48.6,16.3,48.6,16.2,48.4
			C16.3,48.5,16.2,48.4,16.2,48.4z"/>
		<path class="st1" d="M16.2,48.8h-0.7c0,0-0.1,0-0.1,0.1c0,0.1,0,0.1,0.1,0.1h0.7C16.2,49,16.3,49,16.2,48.8
			C16.3,48.8,16.2,48.8,16.2,48.8z"/>
		<path class="st1" d="M29.3,48.2h-0.6l0,0l-0.3,0.1l0.3,0.1l0,0h0.6c0.2,0,0.3,0.2,0.3,0.4c0,0.2-0.1,0.4-0.3,0.4h-0.6
			c0,0-0.1,0-0.1,0.1c0,0.1,0,0.1,0.1,0.1h0.6c0.3,0,0.5-0.2,0.5-0.5C29.8,48.5,29.6,48.2,29.3,48.2z"/>
		<path class="st1" d="M9.4,4V48c0,2.2,1.5,4,3.4,4h19.4c1.9,0,3.4-1.8,3.4-4V4c0-2.2-1.5-4-3.4-4H12.8C10.9,0,9.4,1.8,9.4,4z
			 M34.5,4V48c0,1.4-1,2.6-2.3,2.6H12.8c-1.2,0-2.3-1.2-2.3-2.6V4c0-1.4,1-2.6,2.3-2.6h19.4C33.5,1.3,34.5,2.5,34.5,4z"/>
	</g>
</g>
</svg>
