<?xml version="1.0" encoding="utf-8"?>
<!-- Generator: Adobe Illustrator 21.0.0, SVG Export Plug-In . SVG Version: 6.00 Build 0)  -->
<svg version="1.1" id="Layer_1" xmlns="http://www.w3.org/2000/svg" xmlns:xlink="http://www.w3.org/1999/xlink" x="0px" y="0px"
	 viewBox="0 0 49 65" style="enable-background:new 0 0 49 65;" xml:space="preserve">
<style type="text/css">
	.st0{clip-path:url(#SVGID_2_);}
	.st1{fill:#2E3E50;}
</style>
<g>
	<defs>
		<rect id="SVGID_1_" width="49" height="65"/>
	</defs>
	<clipPath id="SVGID_2_">
		<use xlink:href="#SVGID_1_"  style="overflow:visible;"/>
	</clipPath>
	<g class="st0">
		<path class="st1" d="M48.3,39c-0.1-0.8-0.6-1.8-1.2-2.1c-0.9-0.4-2.5-0.9-4.9-0.9c-2.3,0-5.4-1.2-8.2-2.9c-0.4-0.3-1.2-0.3-1.6,0
			c-0.6,0.4-1.4,1.1-2.4,2c-0.2,0.1-0.3,0.2-0.5,0.2c-0.3,0-0.5-0.2-0.7-0.5c-0.3-0.5-0.2-1.2,0.2-1.6c0.6-0.6,1.2-1.1,1.7-1.5
			c0.4-0.3,0.4-0.9,0-1.3c-0.1-0.1-0.2-0.2-0.2-0.3c-0.4-0.4-1-0.5-1.5-0.2c-0.4,0.4-0.9,0.8-1.5,1.4c-0.2,0.1-0.3,0.2-0.5,0.2
			c-0.3,0-0.5-0.2-0.7-0.5c-0.3-0.5-0.2-1.2,0.2-1.6c0.5-0.5,1-0.9,1.4-1.3c0.4-0.4,0.7-0.7,0.7-0.8c0-0.1-0.1-0.1-0.1-0.2
			c-0.1-0.4-0.3-0.9-0.4-1.4c-0.2-0.6-0.6-0.9-1.1-0.5c-0.4,0.4-0.9,0.8-1.4,1.3c-0.2,0.1-0.3,0.2-0.5,0.2c-0.3,0-0.5-0.2-0.7-0.5
			c-0.3-0.5-0.2-1.2,0.2-1.6c0.7-0.7,1.4-1.3,2-1.8c0.4-0.3,0.7-1.1,0.6-1.7c0-0.2-0.1-0.4-0.1-0.6c-0.1-0.6-0.6-1-1-0.7
			c-0.6,0.4-1.4,1.1-2.4,2c-0.2,0.1-0.3,0.2-0.5,0.2c-0.3,0-0.5-0.2-0.7-0.5c-0.3-0.5-0.2-1.2,0.2-1.6c1.2-1.2,2.2-2,3-2.5
			c0.4-0.3,0.8-1,0.7-1.6c-0.3-2.1-0.5-4-0.7-5.3c-0.1-0.8-0.7-1.4-1.3-1.2c-0.7,0.3-1.7,0.8-2.5,1.8c-0.4,0.6-0.7,1.9-0.7,2.7v1.8
			c0,0-2,0.8-6.9,0.7c-4.9-0.1-4.9-0.1-4.9-0.1s0.2-4-1.5-7.6C7.6,8.3,6.8,8.1,6.3,8.5L4.6,9.9c-0.5,0.4-0.6,1.3-0.3,2
			c0.8,1.8,1.8,5.5,0.6,10.6C4,25.9,2.9,28,1.9,29.9c3.7,1.6,12,6.2,12,16.2h-1.7c0-8.8-8.2-13-11.3-14.2c-0.7,1.6-1.1,3.3-1,5.6
			c0.4,6,0.9,8.3,0.9,8.3l-0.1,4.7c0,0.6,0.3,1.2,0.8,1.3c1.3,0.4,4,1.1,6.4,0.7c0.4-0.1,0.8-0.7,0.8-1.3V51c0-0.6,0.4-1.1,0.8-1.1
			l0.8,0c0.4,0,0.8,0.4,0.8,1v0.7c0,0.6,0.3,1.2,0.8,1.3c0.9,0.2,2.4,0.4,4.1,0c0.4-0.1,0.8-0.7,0.8-1.3v-0.2c0-0.6,0.4-1,0.8-0.9
			c1.1,0.3,3,1,4.3,2c0.4,0.3,0.7,1,0.7,1.6c0,0.6,0.4,1.1,0.8,1.3c1,0.3,2.9,0.8,4,0.6c0.4-0.1,0.8-0.8,0.8-1.4v-0.6
			c0-0.6,0.4-1.1,0.8-1.1h0.3c0.4,0,0.8,0.5,0.8,1.1v1c0,0.6,0.3,1.3,0.8,1.4c0.9,0.3,2.4,0.6,4.1,0c0.4-0.2,0.8-0.8,0.8-1.4v-0.8
			c0-0.6,0.4-1.1,0.8-1.1l0.3,0c0.4,0,0.8,0.4,0.8,1v0.2c0,0.6,0.4,1,0.8,1c0.7-0.2,1.9-0.5,2.8-1.2c0.4-0.3,0.7-1,0.7-1.6
			c0-0.5,0.4-1.1,0.8-1.2l0.9-0.3c0.4-0.2,0.8,0.2,0.8,0.8v0.1c0,0.6,0.4,1,0.8,0.9c1.2-0.4,3.2-1.3,3.5-3.7
			C49.2,46.5,48.6,41.5,48.3,39z"/>
	</g>
</g>
</svg>
