<?xml version="1.0" encoding="utf-8"?>
<!-- Generator: Adobe Illustrator 21.0.0, SVG Export Plug-In . SVG Version: 6.00 Build 0)  -->
<svg version="1.1" id="Layer_1" xmlns="http://www.w3.org/2000/svg" xmlns:xlink="http://www.w3.org/1999/xlink" x="0px" y="0px"
	 viewBox="0 0 40 49" style="enable-background:new 0 0 40 49;" xml:space="preserve">
<style type="text/css">
	.st0{fill:#2E3E50;}
</style>
<path class="st0" d="M36.4,11.7h-11c-0.3-0.7-0.7-1.3-1.1-1.9l6.8-8.4c0.3-0.3,0.3-0.9,0-1.2c-0.3-0.3-0.7-0.3-1,0l-7,8.5
	c-0.9-0.7-2-1.1-3.1-1.1c-1.1,0-2.2,0.4-3.1,1.1l-7-8.5c-0.3-0.3-0.7-0.3-1,0c-0.3,0.3-0.3,0.9,0,1.2l6.8,8.4
	c-0.4,0.5-0.8,1.2-1.1,1.9h-11c-1.5,0-2.7,1.5-2.7,3.3V43c0,1.8,1.2,3.3,2.7,3.3h5.8v1.9c0,0.5,0.3,0.9,0.7,0.9h19.7
	c0.4,0,0.7-0.4,0.7-0.9v-1.9h5.8c1.5,0,2.7-1.5,2.7-3.3V15.1C39.1,13.2,37.9,11.7,36.4,11.7z M20,9.5c1.5,0,2.9,0.9,3.7,2.3h-7.5
	C17.1,10.3,18.5,9.5,20,9.5z M29.2,47.3H10.8v-1h18.3V47.3z M37.7,43c0,0.9-0.6,1.6-1.3,1.6H3.6c-0.7,0-1.3-0.7-1.3-1.6V15.1
	c0-0.9,0.6-1.6,1.3-1.6h32.8c0.7,0,1.3,0.7,1.3,1.6V43z"/>
<path class="st0" d="M35.8,14.9H4.2c-0.4,0-0.7,0.4-0.7,0.9v26.4c0,0.5,0.3,0.9,0.7,0.9h31.6c0.4,0,0.7-0.4,0.7-0.9V15.8
	C36.5,15.3,36.2,14.9,35.8,14.9z M35.1,41.3H4.9V16.7h30.2V41.3z"/>
<path class="st0" d="M33.1,39c0.4,0,0.7-0.4,0.7-0.9V21.6c0-0.5-0.3-0.9-0.7-0.9s-0.7,0.4-0.7,0.9v16.5C32.4,38.6,32.7,39,33.1,39z"
	/>
<path class="st0" d="M32.5,19.4c0.1,0.3,0.4,0.5,0.7,0.5c0.3,0,0.6-0.2,0.7-0.6c0.1-0.3,0-0.7-0.2-1c-0.2-0.3-0.6-0.3-0.9-0.1
	C32.5,18.6,32.4,19.1,32.5,19.4C32.5,19.5,32.5,19.4,32.5,19.4z"/>
</svg>
